<?xml version="1.0" encoding="UTF-8" standalone="no"?>
<svg xmlns:rdf="http://www.w3.org/1999/02/22-rdf-syntax-ns#" xmlns="http://www.w3.org/2000/svg" height="82.8438" width="281.925" version="1.1" xmlns:cc="http://creativecommons.org/ns#" xmlns:dc="http://purl.org/dc/elements/1.1/">
 <g fill-rule="evenodd" transform="matrix(1.25 0 0 1.25 -28.9244 -581.742)">
  <g stroke="#2c2c2b" fill="none">
   <path d="m54.1459 469.527h19.2386v58.018h-19.2386v-58.018z" stroke-width="1.84106"/>
   <path d="m50.9648 505.522v21.738c-13.6463 0.283-23.9445-9.606-23.687-21.738s10.6073-21.738 23.687-21.738v21.738z" stroke-width="1.84116"/>
  </g>
  <g stroke="#2c2c2b" fill="none">
   <path d="m148.985 489.22c2.218 1.512 4.859 3.323 6.235 5.541 6.546 10.551 2.611 24.332-7.735 30.232-6.118 3.488-12.175 3.341-18.894 1.004l20.394-36.777z" stroke-width="1.00205"/>
   <path d="m159.087 485.584h19.907v41.779h-19.907v-41.779z" stroke-width="1.84111"/>
   <path d="m193.662 485.605c5.272 0 9.699 4.664 9.699 9.856 0.404 5.393-4.629 11.27-10.305 11.069-4.449 0-8.947-4.059-10.005-8.114l-3.65 0.043c-0.808-2.541 7.5-14.405 14.261-12.854z" stroke-width="1.84107"/>
  </g>
  <g stroke="#2c2c2b" fill="none">
   <path d="m202.971 510.688h18.203v16.56c-14.629 0.985-18.949-5.377-18.203-16.56z" stroke-width="1.84107"/>
   <path d="m242.013 500.297h-17.143v-14.691c12.947-1.16 16.738 4.587 17.143 14.691z" stroke-width="1.84103"/>
   <path d="m224.826 504.434v23.002h10.532c12.856-2.741 11.819-21.947-0.606-23.153l-9.926 0.151z" stroke-width="1.84107"/>
   <path d="m221.608 485.264v19.272h-10.778c-10.999-2.392-8.123-19.012 0-19.272h10.778z" stroke-width="1.84109"/>
  </g>
  <path d="m124.695 523.601c-2.217-1.512-3.67-3.464-5.022-5.692-6.343-10.449-2.608-24.216 7.128-30.081 6.083-3.664 11.698-3.212 18.289-1.004l-20.395 36.777z" stroke="#2c2c2b" stroke-width="1.00205" fill="none"/>
  <g stroke="#2c2c2b" stroke-width="1.8805" fill="none">
   <path d="m86.6958 486.157c2.4611-1.07 5.4012-2.339 8.0109-2.322 12.4163 0.084 21.9803 10.757 21.4593 22.656-0.308 7.036-3.66 12.083-9.219 16.523l-20.2512-36.857z"/>
   <path d="m104.358 525.185c-2.461 1.07-5.9468 2.32-8.5535 2.277-12.2209-0.202-21.8795-10.699-21.6543-22.063 0.1409-7.099 4.122-13.125 9.5029-17.525l20.7049 37.311z"/>
  </g>
  <g fill="#2c2c2b">
   <path d="m34.9592 473.074 0.4495 0.657 0.415 0.691 0.1728 0.796 0.1038 0.899v0.899 0.691l0.1037 1.107 0.242 1.071 0.3804 0.761 0.5186 0.795 0.5878 0.657 0.8644 0.484 0.5533-0.069 0.2766-0.276 0.2074-0.519-0.0691-0.83-0.4841-0.83-0.4495-0.449-0.5532-0.553-0.5878-0.519-0.4495-0.761-0.2075-0.76-0.1383-0.796-0.2766-0.726-0.1729-0.622-0.2074-0.657-0.4495-0.726-0.1383-0.346 0.3803-0.069 0.3804-0.035 0.4495 0.104 0.242 0.346 0.1383 0.518 0.3112 0.415 0.3803 0.173 0.4495-0.138 0.0346-0.484-0.2766-0.484-0.3804-0.381-0.4495-0.345-0.6915-0.139-0.7607 0.035h-0.4495l-0.2766-0.207-0.3803 0.034-0.242 0.208h-0.415l-0.4149-0.277-0.3457-0.207-0.3804-0.07-0.4495 0.242 0.1383 0.484 0.4841 0.277 0.4841 0.069h0.6223l0.7261-0.138z"/>
   <path d="m39.1747 472.726-0.4466-0.274-0.4841-0.104-0.4841 0.173 0.1038 0.449 0.5878 0.208h0.6223l0.3458 0.345 0.2075 0.554 0.1729 0.518 0.1728 0.415 0.2421 0.519v0.449l-0.4841 0.277-0.3458 0.346 0.0346 0.242 0.242 0.173 0.2075-0.104v-0.277l0.4149-0.069 0.0692 0.519v0.691l0.0346 0.657 0.2766 0.795 0.2074 0.588 0.2075 0.554 0.3457 0.656 0.4495 0.623 0.5187 0.449 0.5532 0.346 0.5532 0.035 0.5533-0.415 0.0345-0.519-0.1729-0.519-0.4149-0.76-0.5186-0.657-0.5187-0.553-0.4149-0.623-0.3803-0.588-0.3112-0.587-0.1729-0.623 0.6224-0.034h0.6224 0.8989l0.1384 0.726 0.0691 1.072 0.1383 0.622 0.2075 0.761 0.3112 0.83 0.5186 0.933 0.6915 0.588 0.7607 0.311 0.6224-0.242 0.1037-0.588v-0.83l-0.7607-0.899-0.7261-0.899-0.484-0.691-0.415-0.761-0.2074-0.345-0.1729-0.519 0.4841-0.035 0.242-0.242-0.2074-0.242h-0.3112-0.3804l-0.0691-0.449-0.3112-0.519-0.2421-0.691-0.3111-0.485-0.1383-0.484-0.1729-0.345 0.4149-0.104v-0.346h-0.5187-0.4149l-0.4149-0.138-0.4841-0.277-0.5186 0.242 0.1729 0.415 0.4495 0.242h0.4495 0.3803l0.242 0.415 0.2075 0.519 0.2075 0.518 0.2074 0.554 0.1037 0.38 0.0346 0.449-0.6569 0.035h-0.6224-0.7953l-0.3803-0.588-0.2075-0.518-0.2074-0.588-0.3458-0.553-0.242-0.623h0.484l0.2229 0.114 0.2206 0.098 0.0813-0.104-0.0464-0.145-0.1278-0.169-0.1741-0.052-0.2555-0.075-0.3426-0.018-0.1974-0.035h-0.2439l-0.2118-0.1z"/>
   <path d="m46.3851 477.069 0.1577 0.789 0.1841 0.973 0.2629 1.051 0.5258 1.026 0.6573 0.815 0.815 0.525 0.9202 0.263 0.6836-0.052 0.6309-0.158 0.5522-0.368 0.4206-0.447 0.1841-0.578v-0.631l-0.0789-0.526-0.2366-0.368-0.2367-0.316-0.184-0.289-0.2629-0.289-0.2892 0.42-0.5521 0.369-0.7362 0.105-0.6047-0.184-0.6047-0.395-0.2892-0.368-0.3418-0.394-0.2366-0.447-0.2366-0.473-0.1052-0.342 0.4996-0.105 0.4995-0.027 0.4732 0.263 0.3681 0.552 0.2103 0.474 0.2892 0.342 0.4207-0.053 0.1315-0.21-0.0789-0.342-0.2629-0.237-0.3418-0.263-0.184-0.289-0.2367-0.368-0.184-0.526-0.184-0.447-0.2104-0.342-0.3418-0.447-0.3943-0.157-0.1841 0.315 0.1841 0.263 0.368 0.158 0.263 0.342 0.0788 0.368-0.2892 0.079-0.3943 0.078-0.5521-0.026-0.263-0.079-0.1314-0.447-0.1578-0.525-0.2629-0.5-0.2103-0.394-0.2366-0.29-0.1315-0.315-0.1314-0.21 0.0788-0.263 0.5522 0.026 0.6572 0.079 0.5259 0.105 0.6046 0.184 0.4733 0.263 0.4469 0.184 0.447 0.316 0.3155 0.446 0.2892 0.342 0.3418 0.132 0.1051-0.184v-0.263l-0.2629-0.395-0.2366-0.341-0.1315-0.421-0.1577-0.316-0.0789-0.315-0.3155-0.21h-0.4995-0.6047-0.5521-0.6836-0.5521-0.6047-0.4995l-0.3944-0.079-0.3155-0.053-0.2366-0.184h-0.3418l-0.3155 0.184v0.316l0.2366 0.21h0.3681l0.5258 0.053 0.3418 0.262 0.2892 0.447 0.2104 0.526 0.1051 0.605 0.1578 0.368 0.1051 0.342-0.1577 0.315-0.3418 0.263-0.2103 0.316 0.0788 0.315h0.2892l0.1841-0.21 0.2892-0.132 0.1577 0.211-0.1051 0.21z"/>
  </g>
 </g>
</svg>
